<svg width="43" height="7" viewBox="0 0 43 7" fill="none" xmlns="http://www.w3.org/2000/svg">
<g clip-path="url(#clip0_43058_2450)">
<path d="M8.53919 1.16802C8.9843 0.71893 9.60404 0.494507 10.3989 0.494507C10.8167 0.494507 11.185 0.553267 11.5034 0.670786C11.8218 0.788306 12.0564 0.931008 12.2073 1.0984C12.358 1.26579 12.4812 1.43516 12.5772 1.60625C12.6731 1.77735 12.7279 1.92005 12.7417 2.03386L12.7725 2.21557H11.4265C11.4196 2.2015 11.4127 2.17805 11.4059 2.1462C11.399 2.1141 11.37 2.0625 11.3185 1.99115C11.2671 1.92005 11.2089 1.85586 11.1439 1.79883C11.0787 1.74179 10.9795 1.69019 10.8459 1.64378C10.7123 1.59761 10.5633 1.5744 10.3989 1.5744C10.0083 1.5744 9.712 1.69563 9.51009 1.93782C9.30794 2.18027 9.2071 2.52221 9.2071 2.96414C9.2071 3.40608 9.30983 3.77123 9.51531 4.03861C9.72078 4.30574 10.0152 4.43956 10.3989 4.43956C10.6592 4.43956 10.8749 4.37018 11.0462 4.23118C11.2172 4.09218 11.3235 3.95146 11.3646 3.80875L11.4263 3.60556H12.7621C12.7552 3.65544 12.7448 3.72308 12.7312 3.80875C12.7172 3.89418 12.6608 4.04774 12.5616 4.26846C12.4622 4.48943 12.3371 4.68373 12.1865 4.85112C12.0356 5.01876 11.8028 5.17183 11.4877 5.31083C11.1726 5.44983 10.8096 5.51945 10.3987 5.51945C9.59716 5.51945 8.97386 5.29157 8.52875 4.83507C8.0834 4.37907 7.86084 3.75518 7.86084 2.96414C7.86084 2.22298 8.08696 1.62427 8.53919 1.16802Z" fill="#131313"/>
<path d="M13.759 1.21073C14.2248 0.733249 14.8651 0.494507 15.6804 0.494507C16.4956 0.494507 17.1377 0.733249 17.607 1.21073C18.0761 1.68822 18.3107 2.28717 18.3107 3.00686C18.3107 3.72654 18.0777 4.33241 17.612 4.80298C17.1393 5.28046 16.4954 5.51921 15.6804 5.51921C14.8654 5.51921 14.2229 5.27874 13.7538 4.79755C13.2845 4.31661 13.0498 3.71963 13.0498 3.00686C13.0498 2.29409 13.2864 1.68822 13.759 1.21073ZM14.3961 3.00686C14.3961 3.42015 14.5054 3.76234 14.7249 4.03318C14.9441 4.30401 15.2626 4.43931 15.6806 4.43931C16.0987 4.43931 16.4083 4.30229 16.6311 4.02774C16.8534 3.75345 16.965 3.41299 16.965 3.00661C16.965 2.579 16.8553 2.23335 16.6361 1.96943C16.4169 1.70575 16.0982 1.57391 15.6806 1.57391C15.263 1.57391 14.9441 1.70599 14.7249 1.96943C14.5057 2.2331 14.3961 2.579 14.3961 3.00686Z" fill="#131313"/>
<path d="M20.0878 0.60141V1.27493C20.4027 0.761641 20.8687 0.501667 21.4851 0.494507H21.557C22.3106 0.494507 22.8413 0.7014 23.1495 1.11469C23.4578 1.52823 23.6117 2.11978 23.6117 2.88958V5.4128H22.2864V2.88958C22.2864 2.0272 21.9782 1.59243 21.3617 1.58527H21.3309C20.9199 1.58527 20.6184 1.72599 20.4267 2.00769C20.2347 2.2894 20.1389 2.69034 20.1389 3.21054V5.41304H18.8135V0.60141H20.0876H20.0878Z" fill="#131313"/>
<path d="M24.7428 1.16802C25.1879 0.71893 25.8077 0.494507 26.6025 0.494507C27.0203 0.494507 27.3886 0.553267 27.707 0.670786C28.0254 0.788306 28.2601 0.931008 28.411 1.0984C28.5616 1.26579 28.6848 1.43516 28.7809 1.60625C28.8767 1.77735 28.9315 1.92005 28.9453 2.03386L28.9761 2.21557H27.6301C27.6232 2.2015 27.6163 2.17805 27.6095 2.1462C27.6026 2.1141 27.5736 2.0625 27.5222 1.99115C27.4707 1.92005 27.4125 1.85586 27.3475 1.79883C27.2823 1.74179 27.1831 1.69019 27.0495 1.64378C26.9159 1.59761 26.7669 1.5744 26.6025 1.5744C26.212 1.5744 25.9156 1.69563 25.7137 1.93782C25.5115 2.18027 25.4107 2.52221 25.4107 2.96414C25.4107 3.40608 25.5134 3.77123 25.7189 4.03861C25.9244 4.30574 26.2188 4.43956 26.6025 4.43956C26.8628 4.43956 27.0785 4.37018 27.2498 4.23118C27.4208 4.09218 27.5271 3.95146 27.5682 3.80875L27.6299 3.60556H28.9657C28.9588 3.65544 28.9484 3.72308 28.9348 3.80875C28.9208 3.89418 28.8644 4.04774 28.7652 4.26846C28.6658 4.48943 28.5407 4.68373 28.3901 4.85112C28.2392 5.01876 28.0064 5.17183 27.6913 5.31083C27.3762 5.44983 27.0132 5.51945 26.6023 5.51945C25.8008 5.51945 25.1775 5.29157 24.7324 4.83507C24.287 4.37907 24.0645 3.75518 24.0645 2.96414C24.0645 2.22298 24.2903 1.62427 24.7426 1.16802H24.7428Z" fill="#131313"/>
<path d="M29.9104 1.1895C30.3486 0.726336 30.9515 0.494507 31.7186 0.494507C32.4857 0.494507 33.0594 0.724361 33.4808 1.18407C33.9022 1.64378 34.1126 2.25508 34.1126 3.01772C34.1126 3.1461 34.1057 3.27794 34.092 3.41324H30.5472C30.5745 3.72703 30.6995 3.97639 30.9223 4.16156C31.1449 4.34697 31.417 4.43956 31.7392 4.43956C31.8899 4.43956 32.0252 4.42178 32.1452 4.38598C32.2648 4.35043 32.3573 4.30945 32.4226 4.26303C32.4876 4.21686 32.5424 4.16872 32.587 4.11885C32.6314 4.06898 32.6606 4.02626 32.6743 3.99046L32.6947 3.93689H34.0203C34.0135 3.9796 33.998 4.03688 33.9741 4.10798C33.9499 4.17934 33.8851 4.30574 33.7788 4.48745C33.6725 4.66916 33.5441 4.82964 33.3935 4.96864C33.2426 5.10764 33.02 5.23429 32.7256 5.34811C32.4309 5.46193 32.0987 5.51921 31.7288 5.51921C30.989 5.51921 30.3913 5.29305 29.9358 4.84026C29.4802 4.38771 29.2524 3.78011 29.2524 3.01747C29.2524 2.25483 29.4714 1.65958 29.9101 1.18925L29.9104 1.1895ZM32.8283 2.49382V2.46172C32.8283 2.19089 32.7256 1.97535 32.5201 1.81487C32.3146 1.65439 32.0508 1.5744 31.729 1.5744C31.4073 1.5744 31.1314 1.65983 30.9223 1.83092C30.7133 2.00202 30.5885 2.22298 30.5472 2.49382H32.8281H32.8283Z" fill="#131313"/>
<path d="M34.6162 0.601318H35.9107V1.31779C36.1846 0.840308 36.5991 0.601318 37.154 0.601318H37.6986V1.75602H37.1849C36.6437 1.75602 36.3013 1.89329 36.1575 2.16759C36.0135 2.44213 35.9416 3.0354 35.9416 3.94766V5.41246H34.6162V0.601318Z" fill="#131313"/>
<path d="M38.4485 1.21073C38.9142 0.733249 39.5546 0.494507 40.3698 0.494507C41.1851 0.494507 41.8271 0.733249 42.2965 1.21073C42.7655 1.68822 43.0004 2.28717 43.0004 3.00686C43.0004 3.72654 42.7674 4.33241 42.3017 4.80298C41.829 5.28046 41.1849 5.51921 40.3698 5.51921C39.5548 5.51921 38.9123 5.27873 38.4432 4.79755C37.9739 4.31661 37.7393 3.71963 37.7393 3.00686C37.7393 2.29409 37.9756 1.68822 38.4482 1.21073H38.4485ZM39.0855 3.00686C39.0855 3.42015 39.1949 3.76234 39.4144 4.03318C39.6334 4.30401 39.952 4.43931 40.3698 4.43931C40.7877 4.43931 41.0975 4.30229 41.3201 4.02774C41.5427 3.75345 41.6542 3.41299 41.6542 3.00661C41.6542 2.579 41.5446 2.23335 41.3253 1.96943C41.1061 1.70575 40.7874 1.57391 40.3698 1.57391C39.9523 1.57391 39.6334 1.70599 39.4144 1.96943C39.1951 2.2331 39.0855 2.57875 39.0855 3.00661V3.00686Z" fill="#131313"/>
<path d="M4.67665 0.829796H1.16177L1.58126 0.0733262C1.60617 0.0276516 1.65362 0 1.70321 0H4.88236C4.93005 0 4.97371 0.0266641 4.99743 0.069376L5.48265 0.942625C5.49878 0.972252 5.49878 1.00904 5.48265 1.03866L4.91178 2.06647L5.43329 3.00712L4.97655 3.83099L4.02796 2.12202C4.00708 2.08449 4.00708 2.03783 4.02796 2.0003L4.67688 0.830043L4.67665 0.829796ZM1.12831 5.12494L1.58315 5.94486C1.60688 5.98732 1.65172 6.01423 1.69918 6.01423H4.87738C4.92791 6.01423 4.97442 5.98658 5.00004 5.94091L5.41977 5.18444H1.96373L2.58229 4.07047C2.60317 4.03294 2.60317 3.98628 2.58229 3.94875L1.60308 2.18547L1.14729 3.00736L1.69918 4.00134L1.12831 5.03013C1.11218 5.05976 1.11218 5.09654 1.12831 5.12518V5.12494Z" fill="#5E43FF"/>
<path d="M2.39795 4.93873H5.44755C5.51517 4.93873 5.57686 4.9012 5.61126 4.83972L6.54183 3.16236C6.59521 3.06632 6.59521 2.94756 6.54183 2.85152L5.64353 1.23267L5.183 2.06246L5.70641 3.00706L5.37898 3.59812L5.11253 4.07733L5.09544 4.10794H2.85849L2.39795 4.93873Z" fill="#5E43FF"/>
<path d="M0.0400389 3.1624L0.96301 4.8257L1.42355 3.9959L0.874509 3.00686L1.4672 1.93956L1.48618 1.90598H3.78317L4.24371 1.0752H1.13432C1.0667 1.0752 1.00406 1.11272 0.970602 1.1742L0.0400389 2.85157C-0.0133463 2.94761 -0.0133463 3.06636 0.0400389 3.1624Z" fill="#5E43FF"/>
</g>
<defs>
<clipPath id="clip0_43058_2450">
<rect width="43" height="6.01399" fill="white"/>
</clipPath>
</defs>
</svg>
