<svg width="43" height="7" viewBox="0 0 43 7" fill="none" xmlns="http://www.w3.org/2000/svg">
<g clip-path="url(#clip0_43058_2434)">
<path d="M8.53919 1.35686C8.9843 0.907772 9.60404 0.68335 10.3989 0.68335C10.8167 0.68335 11.185 0.742109 11.5034 0.859629C11.8218 0.977148 12.0564 1.11985 12.2073 1.28724C12.358 1.45463 12.4812 1.624 12.5772 1.79509C12.6731 1.96619 12.7279 2.10889 12.7417 2.22271L12.7725 2.40442H11.4265C11.4196 2.39035 11.4127 2.36689 11.4059 2.33504C11.399 2.30295 11.37 2.25135 11.3185 2.18C11.2671 2.10889 11.2089 2.0447 11.1439 1.98767C11.0787 1.93064 10.9795 1.87904 10.8459 1.83262C10.7123 1.78645 10.5633 1.76325 10.3989 1.76325C10.0083 1.76325 9.712 1.88447 9.51009 2.12667C9.30794 2.36911 9.2071 2.71105 9.2071 3.15299C9.2071 3.59492 9.30983 3.96007 9.51531 4.22745C9.72078 4.49459 10.0152 4.6284 10.3989 4.6284C10.6592 4.6284 10.8749 4.55902 11.0462 4.42003C11.2172 4.28103 11.3235 4.1403 11.3646 3.9976L11.4263 3.79441H12.7621C12.7552 3.84428 12.7448 3.91193 12.7312 3.9976C12.7172 4.08302 12.6608 4.23659 12.5616 4.45731C12.4622 4.67827 12.3371 4.87257 12.1865 5.03997C12.0356 5.2076 11.8028 5.36067 11.4877 5.49967C11.1726 5.63867 10.8096 5.7083 10.3987 5.7083C9.59716 5.7083 8.97386 5.48042 8.52875 5.02392C8.0834 4.56791 7.86084 3.94402 7.86084 3.15299C7.86084 2.41182 8.08696 1.81312 8.53919 1.35686Z" fill="white"/>
<path d="M13.759 1.39958C14.2248 0.922092 14.8651 0.68335 15.6804 0.68335C16.4956 0.68335 17.1377 0.922092 17.607 1.39958C18.0761 1.87706 18.3107 2.47602 18.3107 3.1957C18.3107 3.91538 18.0777 4.52125 17.612 4.99182C17.1393 5.46931 16.4954 5.70805 15.6804 5.70805C14.8654 5.70805 14.2229 5.46758 13.7538 4.98639C13.2845 4.50545 13.0498 3.90847 13.0498 3.1957C13.0498 2.48293 13.2864 1.87706 13.759 1.39958ZM14.3961 3.1957C14.3961 3.60899 14.5054 3.95118 14.7249 4.22202C14.9441 4.49286 15.2626 4.62815 15.6806 4.62815C16.0987 4.62815 16.4083 4.49113 16.6311 4.21659C16.8534 3.94229 16.965 3.60183 16.965 3.19545C16.965 2.76784 16.8553 2.42219 16.6361 2.15827C16.4169 1.89459 16.0982 1.76275 15.6806 1.76275C15.263 1.76275 14.9441 1.89484 14.7249 2.15827C14.5057 2.42195 14.3961 2.76784 14.3961 3.1957Z" fill="white"/>
<path d="M20.0878 0.790253V1.46377C20.4027 0.950484 20.8687 0.690509 21.4851 0.68335H21.557C22.3106 0.68335 22.8413 0.890243 23.1495 1.30354C23.4578 1.71708 23.6117 2.30862 23.6117 3.07843V5.60164H22.2864V3.07843C22.2864 2.21604 21.9782 1.78127 21.3617 1.77411H21.3309C20.9199 1.77411 20.6184 1.91484 20.4267 2.19654C20.2347 2.47824 20.1389 2.87919 20.1389 3.39938V5.60189H18.8135V0.790253H20.0876H20.0878Z" fill="white"/>
<path d="M24.7428 1.35686C25.1879 0.907772 25.8077 0.68335 26.6025 0.68335C27.0203 0.68335 27.3886 0.742109 27.707 0.859629C28.0254 0.977148 28.2601 1.11985 28.411 1.28724C28.5616 1.45463 28.6848 1.624 28.7809 1.79509C28.8767 1.96619 28.9315 2.10889 28.9453 2.22271L28.9761 2.40442H27.6301C27.6232 2.39034 27.6163 2.36689 27.6095 2.33504C27.6026 2.30295 27.5736 2.25135 27.5222 2.17999C27.4707 2.10889 27.4125 2.0447 27.3475 1.98767C27.2823 1.93064 27.1831 1.87904 27.0495 1.83262C26.9159 1.78645 26.7669 1.76325 26.6025 1.76325C26.212 1.76325 25.9156 1.88447 25.7137 2.12667C25.5115 2.36911 25.4107 2.71105 25.4107 3.15299C25.4107 3.59492 25.5134 3.96007 25.7189 4.22745C25.9244 4.49459 26.2188 4.6284 26.6025 4.6284C26.8628 4.6284 27.0785 4.55902 27.2498 4.42003C27.4208 4.28103 27.5271 4.1403 27.5682 3.9976L27.6299 3.79441H28.9657C28.9588 3.84428 28.9484 3.91193 28.9348 3.9976C28.9208 4.08302 28.8644 4.23659 28.7652 4.45731C28.6658 4.67827 28.5407 4.87257 28.3901 5.03997C28.2392 5.2076 28.0064 5.36067 27.6913 5.49967C27.3762 5.63867 27.0132 5.7083 26.6023 5.7083C25.8008 5.7083 25.1775 5.48042 24.7324 5.02392C24.287 4.56791 24.0645 3.94402 24.0645 3.15299C24.0645 2.41182 24.2903 1.81312 24.7426 1.35686H24.7428Z" fill="white"/>
<path d="M29.9104 1.37834C30.3486 0.915179 30.9515 0.68335 31.7186 0.68335C32.4857 0.68335 33.0594 0.913204 33.4808 1.37291C33.9022 1.83262 34.1126 2.44392 34.1126 3.20656C34.1126 3.33494 34.1057 3.46678 34.092 3.60208H30.5472C30.5745 3.91588 30.6995 4.16523 30.9223 4.3504C31.1449 4.53582 31.417 4.6284 31.7392 4.6284C31.8899 4.6284 32.0252 4.61062 32.1452 4.57482C32.2648 4.53927 32.3573 4.49829 32.4226 4.45187C32.4876 4.40571 32.5424 4.35756 32.587 4.30769C32.6314 4.25782 32.6606 4.21511 32.6743 4.17931L32.6947 4.12573H34.0203C34.0135 4.16844 33.998 4.22572 33.9741 4.29683C33.9499 4.36818 33.8851 4.49459 33.7788 4.6763C33.6725 4.85801 33.5441 5.01849 33.3935 5.15748C33.2426 5.29648 33.02 5.42314 32.7256 5.53695C32.4309 5.65077 32.0987 5.70805 31.7288 5.70805C30.989 5.70805 30.3913 5.4819 29.9358 5.0291C29.4802 4.57655 29.2524 3.96896 29.2524 3.20632C29.2524 2.44367 29.4714 1.84842 29.9101 1.3781L29.9104 1.37834ZM32.8283 2.68266V2.65057C32.8283 2.37973 32.7256 2.16419 32.5201 2.00372C32.3146 1.84324 32.0508 1.76324 31.729 1.76324C31.4073 1.76324 31.1314 1.84867 30.9223 2.01976C30.7133 2.19086 30.5885 2.41182 30.5472 2.68266H32.8281H32.8283Z" fill="white"/>
<path d="M34.6162 0.790161H35.9107V1.50664C36.1846 1.02915 36.5991 0.790161 37.154 0.790161H37.6986V1.94486H37.1849C36.6437 1.94486 36.3013 2.08214 36.1575 2.35643C36.0135 2.63097 35.9416 3.22425 35.9416 4.1365V5.6013H34.6162V0.790161Z" fill="white"/>
<path d="M38.4485 1.39958C38.9142 0.922092 39.5546 0.68335 40.3698 0.68335C41.1851 0.68335 41.8271 0.922092 42.2965 1.39958C42.7655 1.87706 43.0004 2.47602 43.0004 3.1957C43.0004 3.91538 42.7674 4.52125 42.3017 4.99182C41.829 5.46931 41.1849 5.70805 40.3698 5.70805C39.5548 5.70805 38.9123 5.46758 38.4432 4.98639C37.9739 4.50545 37.7393 3.90847 37.7393 3.1957C37.7393 2.48293 37.9756 1.87706 38.4482 1.39958H38.4485ZM39.0855 3.1957C39.0855 3.60899 39.1949 3.95118 39.4144 4.22202C39.6334 4.49286 39.952 4.62815 40.3698 4.62815C40.7877 4.62815 41.0975 4.49113 41.3201 4.21659C41.5427 3.94229 41.6542 3.60183 41.6542 3.19545C41.6542 2.76784 41.5446 2.42219 41.3253 2.15827C41.1061 1.89459 40.7874 1.76275 40.3698 1.76275C39.9523 1.76275 39.6334 1.89484 39.4144 2.15827C39.1951 2.42195 39.0855 2.76759 39.0855 3.19545V3.1957Z" fill="white"/>
<path d="M4.67665 1.01864H1.16177L1.58126 0.262169C1.60617 0.216494 1.65362 0.188843 1.70321 0.188843H4.88236C4.93005 0.188843 4.97371 0.215507 4.99743 0.258219L5.48265 1.13147C5.49878 1.16109 5.49878 1.19788 5.48265 1.22751L4.91178 2.25531L5.43329 3.19596L4.97655 4.01983L4.02796 2.31086C4.00708 2.27333 4.00708 2.22667 4.02796 2.18914L4.67688 1.01889L4.67665 1.01864ZM1.12831 5.31378L1.58315 6.1337C1.60688 6.17616 1.65172 6.20308 1.69918 6.20308H4.87738C4.92791 6.20308 4.97442 6.17542 5.00004 6.12975L5.41977 5.37328H1.96373L2.58229 4.25931C2.60317 4.22179 2.60317 4.17512 2.58229 4.1376L1.60308 2.37431L1.14729 3.19621L1.69918 4.19018L1.12831 5.21897C1.11218 5.2486 1.11218 5.28539 1.12831 5.31403V5.31378Z" fill="#5E43FF"/>
<path d="M2.39795 5.12757H5.44755C5.51517 5.12757 5.57686 5.09004 5.61126 5.02857L6.54183 3.3512C6.59521 3.25516 6.59521 3.1364 6.54183 3.04036L5.64353 1.42151L5.183 2.25131L5.70641 3.19591L5.37898 3.78696L5.11253 4.26617L5.09544 4.29679H2.85849L2.39795 5.12757Z" fill="#5E43FF"/>
<path d="M0.0400389 3.35124L0.96301 5.01454L1.42355 4.18474L0.874509 3.1957L1.4672 2.1284L1.48618 2.09482H3.78317L4.24371 1.26404H1.13432C1.0667 1.26404 1.00406 1.30157 0.970602 1.36304L0.0400389 3.04041C-0.0133463 3.13645 -0.0133463 3.2552 0.0400389 3.35124Z" fill="#5E43FF"/>
</g>
<defs>
<clipPath id="clip0_43058_2434">
<rect width="43" height="6.01399" fill="white" transform="translate(0 0.188843)"/>
</clipPath>
</defs>
</svg>
