<svg width="102" height="14" viewBox="0 0 102 14" fill="none" xmlns="http://www.w3.org/2000/svg">
<g clip-path="url(#clip0_42706_69931)">
<path d="M20.2556 2.71913C21.3114 1.67368 22.7815 1.15125 24.667 1.15125C25.6581 1.15125 26.5316 1.28803 27.2869 1.56161C28.0422 1.83518 28.5988 2.16738 28.9568 2.55705C29.3142 2.94672 29.6063 3.34099 29.8342 3.73928C30.0616 4.13757 30.1916 4.46977 30.2243 4.73473L30.2974 5.15773H27.1046C27.0882 5.12497 27.0719 5.07037 27.0556 4.99623C27.0393 4.92152 26.9706 4.8014 26.8485 4.6353C26.7263 4.46977 26.5884 4.32034 26.4342 4.18758C26.2795 4.05481 26.0442 3.93469 25.7273 3.82664C25.4105 3.71917 25.057 3.66514 24.667 3.66514C23.7406 3.66514 23.0376 3.94734 22.5587 4.51115C22.0791 5.07554 21.8399 5.87155 21.8399 6.90033C21.8399 7.92911 22.0836 8.77914 22.571 9.40158C23.0584 10.0234 23.7569 10.335 24.667 10.335C25.2844 10.335 25.796 10.1735 26.2024 9.84988C26.6081 9.5263 26.8603 9.1987 26.9577 8.8665L27.104 8.3935H30.2727C30.2564 8.50959 30.2316 8.66707 30.1995 8.8665C30.1663 9.06536 30.0323 9.42285 29.7971 9.93666C29.5613 10.4511 29.2647 10.9034 28.9073 11.293C28.5493 11.6833 27.9972 12.0396 27.2498 12.3632C26.5023 12.6868 25.6412 12.8489 24.6664 12.8489C22.7652 12.8489 21.2867 12.3184 20.2308 11.2557C19.1744 10.1941 18.6465 8.74179 18.6465 6.90033C18.6465 5.17497 19.1823 3.78124 20.255 2.71913H20.2556Z" fill="#5E43FF"/>
<path d="M32.6364 2.81855C33.7412 1.70702 35.2602 1.15125 37.1941 1.15125C39.1279 1.15125 40.6509 1.70702 41.7642 2.81855C42.8769 3.93009 43.4335 5.32441 43.4335 6.99976C43.4335 8.67512 42.8808 10.0855 41.776 11.181C40.6549 12.2925 39.1274 12.8483 37.1941 12.8483C35.2608 12.8483 33.7367 12.2885 32.624 11.1683C31.5107 10.0487 30.9541 8.65902 30.9541 6.99976C30.9541 5.3405 31.5152 3.93009 32.6364 2.81855ZM34.1475 6.99976C34.1475 7.96187 34.407 8.75845 34.9276 9.38894C35.4477 10.0194 36.203 10.3344 37.1947 10.3344C38.1863 10.3344 38.9208 10.0154 39.4493 9.3763C39.9767 8.73776 40.2412 7.9452 40.2412 6.99919C40.2412 6.00374 39.9812 5.19911 39.4611 4.58472C38.9411 3.9709 38.1852 3.66399 37.1947 3.66399C36.2041 3.66399 35.4477 3.97148 34.9276 4.58472C34.4076 5.19854 34.1475 6.00374 34.1475 6.99976Z" fill="#5E43FF"/>
<path d="M47.6504 1.40011V2.96799C48.3972 1.77311 49.5026 1.16791 50.9648 1.15125H51.1353C52.9229 1.15125 54.1819 1.63287 54.913 2.59498C55.6441 3.55767 56.0094 4.93473 56.0094 6.72676V12.6006H52.8654V6.72676C52.8654 4.71921 52.1343 3.7071 50.6721 3.69043H50.599C49.6242 3.69043 48.9088 4.01803 48.4541 4.6738C47.9987 5.32958 47.7714 6.26295 47.7714 7.47392V12.6011H44.6274V1.40011H47.6498H47.6504Z" fill="#5E43FF"/>
<path d="M58.6906 2.71913C59.7465 1.67368 61.2166 1.15125 63.102 1.15125C64.0932 1.15125 64.9667 1.28803 65.722 1.56161C66.4773 1.83518 67.0339 2.16738 67.3919 2.55705C67.7492 2.94672 68.0413 3.34099 68.2693 3.73928C68.4967 4.13757 68.6267 4.46977 68.6593 4.73473L68.7325 5.15773H65.5396C65.5233 5.12497 65.507 5.07037 65.4906 4.99623C65.4743 4.92152 65.4057 4.8014 65.2835 4.6353C65.1614 4.46977 65.0235 4.32034 64.8693 4.18758C64.7145 4.05481 64.4793 3.93469 64.1624 3.82664C63.8455 3.71917 63.4921 3.66514 63.102 3.66514C62.1756 3.66514 61.4727 3.94734 60.9937 4.51115C60.5142 5.07554 60.275 5.87155 60.275 6.90033C60.275 7.92911 60.5187 8.77914 61.0061 9.40158C61.4935 10.0234 62.192 10.335 63.102 10.335C63.7195 10.335 64.2311 10.1735 64.6374 9.84988C65.0432 9.5263 65.2953 9.1987 65.3927 8.8665L65.539 8.3935H68.7077C68.6914 8.50959 68.6666 8.66707 68.6346 8.8665C68.6014 9.06536 68.4674 9.42285 68.2321 9.93666C67.9963 10.4511 67.6997 10.9034 67.3423 11.293C66.9844 11.6833 66.4322 12.0396 65.6848 12.3632C64.9374 12.6868 64.0763 12.8489 63.1015 12.8489C61.2003 12.8489 59.7217 12.3184 58.6659 11.2557C57.6095 10.1941 57.0815 8.74179 57.0815 6.90033C57.0815 5.17497 57.6173 3.78124 58.6901 2.71913H58.6906Z" fill="#5E43FF"/>
<path d="M70.9499 2.76913C71.9894 1.69092 73.4195 1.15125 75.2391 1.15125C77.0587 1.15125 78.4196 1.68632 79.4192 2.75648C80.4188 3.82664 80.918 5.24969 80.918 7.02505C80.918 7.32391 80.9017 7.63082 80.869 7.94578H72.4605C72.5252 8.67627 72.8218 9.25675 73.3503 9.6878C73.8782 10.1194 74.5238 10.335 75.2881 10.335C75.6455 10.335 75.9663 10.2936 76.2511 10.2102C76.5347 10.1275 76.7542 10.0321 76.909 9.92402C77.0632 9.81654 77.1932 9.70447 77.299 9.58837C77.4043 9.47228 77.4735 9.37285 77.5062 9.28951L77.5546 9.16479H80.699C80.6827 9.26422 80.6461 9.39756 80.5893 9.56308C80.5319 9.72918 80.3782 10.0234 80.1261 10.4465C79.8739 10.8695 79.5695 11.243 79.2121 11.5666C78.8541 11.8902 78.3262 12.185 77.6277 12.45C76.9287 12.7149 76.1408 12.8483 75.2633 12.8483C73.5084 12.8483 72.0907 12.3218 71.0101 11.2678C69.9295 10.2143 69.3892 8.79983 69.3892 7.02447C69.3892 5.24911 69.9086 3.86343 70.9493 2.76855L70.9499 2.76913ZM77.8714 5.80546V5.73074C77.8714 5.10026 77.6277 4.59851 77.1403 4.22493C76.6529 3.85136 76.0271 3.66514 75.2639 3.66514C74.5007 3.66514 73.8461 3.864 73.3503 4.26229C72.8544 4.66058 72.5584 5.17497 72.4605 5.80546H77.8709H77.8714Z" fill="#5E43FF"/>
<path d="M82.1123 1.40015H85.1831V3.06803C85.8326 1.95649 86.8158 1.40015 88.1322 1.40015H89.4239V4.08819H88.2054C86.9216 4.08819 86.1095 4.40774 85.7684 5.04627C85.4268 5.68538 85.2562 7.06647 85.2562 9.19012V12.6H82.1123V1.40015Z" fill="#5E43FF"/>
<path d="M91.2033 2.81855C92.3081 1.70702 93.8271 1.15125 95.761 1.15125C97.6948 1.15125 99.2178 1.70702 100.331 2.81855C101.444 3.93009 102.001 5.3244 102.001 6.99976C102.001 8.67512 101.448 10.0855 100.343 11.181C99.2223 12.2925 97.6943 12.8483 95.761 12.8483C93.8277 12.8483 92.3036 12.2885 91.1909 11.1683C90.0776 10.0487 89.521 8.65902 89.521 6.99976C89.521 5.3405 90.0816 3.93009 91.2027 2.81855H91.2033ZM92.7144 6.99976C92.7144 7.96187 92.9739 8.75845 93.4945 9.38894C94.014 10.0194 94.7699 10.3344 95.761 10.3344C96.7521 10.3344 97.4872 10.0154 98.0151 9.3763C98.543 8.73776 98.8075 7.9452 98.8075 6.99919C98.8075 6.00374 98.5475 5.19911 98.0275 4.58472C97.5074 3.9709 96.7516 3.66399 95.761 3.66399C94.7704 3.66399 94.014 3.97148 93.4945 4.58472C92.9745 5.19854 92.7144 6.00317 92.7144 6.99919V6.99976Z" fill="#5E43FF"/>
<path d="M11.0941 1.93169H2.7565L3.75157 0.170697C3.81066 0.0643705 3.92323 0 4.04086 0H11.5821C11.6952 0 11.7988 0.0620715 11.8551 0.161501L13.006 2.19434C13.0443 2.26331 13.0443 2.34895 13.006 2.41792L11.6519 4.81054L12.889 7.00029L11.8055 8.91818L9.55537 4.93986C9.50585 4.8525 9.50585 4.74387 9.55537 4.65651L11.0947 1.93226L11.0941 1.93169ZM2.67714 11.9304L3.75607 13.8391C3.81235 13.9379 3.91872 14.0006 4.03129 14.0006H11.5703C11.6902 14.0006 11.8005 13.9362 11.8613 13.8299L12.8569 12.0689H4.65883L6.12611 9.47568C6.17563 9.38832 6.17563 9.27969 6.12611 9.19233L3.80335 5.08756L2.72217 7.00086L4.03129 9.31475L2.67714 11.7097C2.63887 11.7786 2.63887 11.8643 2.67714 11.9309V11.9304Z" fill="#5E43FF"/>
<path d="M5.68799 11.497H12.9219C13.0823 11.497 13.2287 11.4096 13.3103 11.2665L15.5177 7.36177C15.6443 7.13819 15.6443 6.86175 15.5177 6.63817L13.3868 2.86963L12.2944 4.80132L13.536 7.00026L12.7593 8.37618L12.1272 9.49174L12.0867 9.56301H6.78042L5.68799 11.497Z" fill="#5E43FF"/>
<path d="M0.0944877 7.36175L2.28386 11.2337L3.3763 9.30206L2.07393 6.99967L3.47985 4.51508L3.52488 4.43692H8.97355L10.066 2.50293H2.69022C2.52981 2.50293 2.38123 2.59029 2.30187 2.7334L0.0944877 6.63816C-0.0321469 6.86173 -0.0321469 7.13818 0.0944877 7.36175Z" fill="#5E43FF"/>
</g>
<defs>
<clipPath id="clip0_42706_69931">
<rect width="102" height="14" fill="white"/>
</clipPath>
</defs>
</svg>
