<svg width="82" height="12" viewBox="0 0 82 12" fill="none" xmlns="http://www.w3.org/2000/svg">
<g clip-path="url(#clip0_42706_69947)">
<path d="M16.2838 2.55855C17.1327 1.71809 18.3145 1.2981 19.8302 1.2981C20.627 1.2981 21.3293 1.40806 21.9365 1.62799C22.5437 1.84793 22.9912 2.11499 23.2789 2.42825C23.5662 2.74152 23.8011 3.05848 23.9843 3.37867C24.1671 3.69887 24.2716 3.96593 24.2979 4.17893L24.3567 4.519H21.7899C21.7767 4.49266 21.7636 4.44877 21.7505 4.38916C21.7374 4.3291 21.6822 4.23253 21.584 4.099C21.4858 3.96593 21.375 3.8458 21.251 3.73907C21.1265 3.63234 20.9374 3.53577 20.6827 3.44891C20.4279 3.3625 20.1438 3.31907 19.8302 3.31907C19.0855 3.31907 18.5204 3.54593 18.1353 3.9992C17.7498 4.45292 17.5575 5.09285 17.5575 5.91991C17.5575 6.74697 17.7534 7.43033 18.1453 7.93072C18.5371 8.43065 19.0986 8.68108 19.8302 8.68108C20.3266 8.68108 20.7379 8.55125 21.0646 8.29111C21.3908 8.03098 21.5935 7.76762 21.6718 7.50056L21.7894 7.1203H24.3368C24.3237 7.21363 24.3037 7.34023 24.278 7.50056C24.2513 7.66043 24.1436 7.94782 23.9544 8.36088C23.7649 8.77441 23.5264 9.13804 23.2391 9.4513C22.9513 9.76503 22.5075 10.0515 21.9066 10.3116C21.3057 10.5718 20.6135 10.7021 19.8298 10.7021C18.3014 10.7021 17.1127 10.2756 16.2639 9.42127C15.4146 8.56788 14.9902 7.4003 14.9902 5.91991C14.9902 4.53286 15.421 3.4124 16.2834 2.55855H16.2838Z" fill="white"/>
<path d="M26.2372 2.63848C27.1254 1.74489 28.3466 1.2981 29.9012 1.2981C31.4559 1.2981 32.6803 1.74489 33.5752 2.63848C34.4698 3.53207 34.9172 4.65299 34.9172 5.99984C34.9172 7.3467 34.4729 8.48055 33.5847 9.36121C32.6834 10.2548 31.4554 10.7016 29.9012 10.7016C28.347 10.7016 27.1217 10.2516 26.2272 9.35104C25.3323 8.45098 24.8848 7.33376 24.8848 5.99984C24.8848 4.66593 25.3359 3.53207 26.2372 2.63848ZM27.452 5.99984C27.452 6.7733 27.6606 7.4137 28.0792 7.92056C28.4972 8.42742 29.1044 8.68062 29.9017 8.68062C30.6989 8.68062 31.2894 8.42418 31.7143 7.91039C32.1382 7.39706 32.3509 6.7599 32.3509 5.99938C32.3509 5.19912 32.1418 4.55226 31.7238 4.05834C31.3057 3.56488 30.698 3.31815 29.9017 3.31815C29.1053 3.31815 28.4972 3.56534 28.0792 4.05834C27.6611 4.5518 27.452 5.19912 27.452 5.99984Z" fill="white"/>
<path d="M38.3071 1.49816V2.75861C38.9076 1.79803 39.7962 1.31149 40.9717 1.2981H41.1088C42.5458 1.2981 43.558 1.68529 44.1457 2.45875C44.7335 3.23267 45.0271 4.33972 45.0271 5.78037V10.5025H42.4997V5.78037C42.4997 4.16646 41.9119 3.3528 40.7364 3.3394H40.6776C39.8939 3.3394 39.3188 3.60277 38.9533 4.12996C38.5872 4.65715 38.4044 5.4075 38.4044 6.38103V10.5029H35.877V1.49816H38.3067H38.3071Z" fill="white"/>
<path d="M47.1828 2.55855C48.0316 1.71809 49.2134 1.2981 50.7292 1.2981C51.526 1.2981 52.2282 1.40806 52.8354 1.62799C53.4426 1.84793 53.8901 2.11499 54.1778 2.42825C54.4652 2.74152 54.7 3.05848 54.8832 3.37867C55.066 3.69887 55.1705 3.96593 55.1968 4.17893L55.2556 4.519H52.6888C52.6757 4.49266 52.6625 4.44877 52.6494 4.38916C52.6363 4.3291 52.5811 4.23253 52.4829 4.099C52.3847 3.96593 52.2739 3.8458 52.1499 3.73907C52.0255 3.63234 51.8363 3.53577 51.5816 3.44891C51.3269 3.3625 51.0427 3.31907 50.7292 3.31907C49.9844 3.31907 49.4193 3.54593 49.0342 3.9992C48.6487 4.45292 48.4564 5.09285 48.4564 5.91991C48.4564 6.74697 48.6524 7.43033 49.0442 7.93072C49.436 8.43065 49.9975 8.68108 50.7292 8.68108C51.2255 8.68108 51.6368 8.55125 51.9635 8.29111C52.2897 8.03098 52.4924 7.76762 52.5707 7.50056L52.6883 7.1203H55.2357C55.2226 7.21363 55.2027 7.34023 55.1769 7.50056C55.1502 7.66043 55.0425 7.94782 54.8534 8.36088C54.6638 8.77441 54.4253 9.13804 54.138 9.4513C53.8503 9.76503 53.4064 10.0515 52.8055 10.3116C52.2047 10.5718 51.5124 10.7021 50.7287 10.7021C49.2003 10.7021 48.0117 10.2756 47.1628 9.42127C46.3136 8.56788 45.8892 7.4003 45.8892 5.91991C45.8892 4.53286 46.3199 3.4124 47.1823 2.55855H47.1828Z" fill="white"/>
<path d="M57.0379 2.59875C57.8736 1.73195 59.0233 1.2981 60.4861 1.2981C61.9489 1.2981 63.043 1.72826 63.8466 2.58858C64.6501 3.44891 65.0515 4.59292 65.0515 6.02017C65.0515 6.26044 65.0383 6.50717 65.0121 6.76037H58.2523C58.3043 7.34762 58.5428 7.81429 58.9676 8.16082C59.3921 8.50781 59.911 8.68108 60.5255 8.68108C60.8128 8.68108 61.0707 8.64781 61.2996 8.58082C61.5277 8.51428 61.7041 8.43758 61.8286 8.35072C61.9525 8.26432 62.0571 8.17422 62.1421 8.08089C62.2267 7.98755 62.2824 7.90762 62.3086 7.84062L62.3475 7.74036H64.8755C64.8623 7.82029 64.8329 7.92749 64.7872 8.06056C64.7411 8.19409 64.6176 8.43065 64.4149 8.77071C64.2122 9.11078 63.9674 9.41111 63.6801 9.67124C63.3923 9.93137 62.9679 10.1684 62.4064 10.3814C61.8444 10.5944 61.211 10.7016 60.5056 10.7016C59.0948 10.7016 57.955 10.2784 57.0863 9.43097C56.2176 8.58405 55.7832 7.44696 55.7832 6.01971C55.7832 4.59246 56.2008 3.47848 57.0374 2.59828L57.0379 2.59875ZM62.6023 5.03972V4.97965C62.6023 4.47279 62.4064 4.06943 62.0145 3.7691C61.6227 3.46877 61.1196 3.31907 60.506 3.31907C59.8925 3.31907 59.3663 3.47894 58.9676 3.79913C58.569 4.11933 58.331 4.53286 58.2523 5.03972H62.6018H62.6023Z" fill="white"/>
<path d="M66.0117 1.49817H68.4804V2.83902C69.0025 1.94543 69.793 1.49817 70.8513 1.49817H71.8897V3.65914H70.9101C69.878 3.65914 69.2251 3.91604 68.9509 4.42937C68.6763 4.94316 68.5392 6.05345 68.5392 7.7607V10.502H66.0117V1.49817Z" fill="white"/>
<path d="M73.3202 2.63848C74.2084 1.74489 75.4296 1.2981 76.9842 1.2981C78.5389 1.2981 79.7633 1.74489 80.6582 2.63848C81.5528 3.53207 82.0007 4.65299 82.0007 5.99984C82.0007 7.3467 81.5564 8.48055 80.6682 9.36121C79.7669 10.2548 78.5385 10.7016 76.9842 10.7016C75.43 10.7016 74.2048 10.2516 73.3102 9.35104C72.4153 8.45098 71.9678 7.33376 71.9678 5.99984C71.9678 4.66593 72.4184 3.53207 73.3197 2.63848H73.3202ZM74.5351 5.99984C74.5351 6.7733 74.7436 7.4137 75.1622 7.92056C75.5798 8.42742 76.1874 8.68062 76.9842 8.68062C77.781 8.68062 78.3719 8.42418 78.7964 7.91039C79.2208 7.39706 79.4334 6.7599 79.4334 5.99938C79.4334 5.19912 79.2244 4.55226 78.8063 4.05834C78.3882 3.56488 77.7806 3.31815 76.9842 3.31815C76.1879 3.31815 75.5798 3.56534 75.1622 4.05834C74.7441 4.5518 74.5351 5.19866 74.5351 5.99938V5.99984Z" fill="white"/>
<path d="M8.91858 1.92548H2.21578L3.01574 0.509785C3.06324 0.424307 3.15374 0.372559 3.2483 0.372559H9.31086C9.40181 0.372559 9.48506 0.422459 9.53031 0.502393L10.4556 2.13664C10.4864 2.19208 10.4864 2.26093 10.4556 2.31637L9.36697 4.23986L10.3615 6.00024L9.49049 7.54208L7.68154 4.34382C7.64172 4.27359 7.64172 4.18626 7.68154 4.11603L8.91903 1.92595L8.91858 1.92548ZM2.15198 9.96364L3.01935 11.4981C3.0646 11.5776 3.15012 11.6279 3.24061 11.6279H9.30136C9.39774 11.6279 9.48642 11.5762 9.53528 11.4907L10.3357 10.075H3.74511L4.92468 7.99026C4.9645 7.92003 4.9645 7.8327 4.92468 7.76247L3.05736 4.46256L2.18818 6.0007L3.24061 7.86089L2.15198 9.78622C2.12121 9.84167 2.12121 9.91051 2.15198 9.96411V9.96364Z" fill="#5E43FF"/>
<path d="M4.57275 9.61529H10.3883C10.5172 9.61529 10.6349 9.54506 10.7005 9.43001L12.475 6.29089C12.5768 6.11116 12.5768 5.88892 12.475 5.70918L10.762 2.67957L9.88377 4.23249L10.8819 6.00027L10.2575 7.1064L9.74939 8.00322L9.71681 8.06052H5.45099L4.57275 9.61529Z" fill="#5E43FF"/>
<path d="M0.075865 6.29088L1.83595 9.40366L2.71418 7.85073L1.66718 5.99979L2.79743 4.00238L2.83363 3.93954H7.21393L8.09216 2.38477H2.16263C2.03368 2.38477 1.91423 2.455 1.85043 2.57004L0.075865 5.70916C-0.0259394 5.8889 -0.0259394 6.11114 0.075865 6.29088Z" fill="#5E43FF"/>
</g>
<defs>
<clipPath id="clip0_42706_69947">
<rect width="82" height="11.2549" fill="white" transform="translate(0 0.372559)"/>
</clipPath>
</defs>
</svg>
