<svg width="103" height="15" viewBox="0 0 103 15" fill="none" xmlns="http://www.w3.org/2000/svg">
<mask id="mask0_42706_69978" style="mask-type:alpha" maskUnits="userSpaceOnUse" x="0" y="0" width="103" height="15">
<g opacity="0.5">
<path d="M20.4568 3.81065C21.5232 2.76018 23.0071 2.23267 24.9109 2.23267C25.9121 2.23267 26.7944 2.36968 27.5577 2.646C28.321 2.92232 28.8822 3.25572 29.2437 3.64851C29.6051 4.04129 29.8992 4.43636 30.1304 4.83828C30.3594 5.23791 30.4919 5.5736 30.5233 5.8385L30.5974 6.26326H27.3736C27.3579 6.229 27.3399 6.17648 27.3242 6.10112C27.3085 6.02576 27.2389 5.90472 27.1154 5.73802C26.992 5.57131 26.8528 5.42059 26.6979 5.28814C26.5407 5.15569 26.305 5.03466 25.984 4.92505C25.6629 4.81772 25.306 4.76291 24.9131 4.76291C23.977 4.76291 23.2675 5.04609 22.7849 5.61471C22.3 6.18333 22.0597 6.98259 22.0597 8.01707C22.0597 9.05155 22.3067 9.90791 22.7983 10.5336C23.29 11.1593 23.9949 11.4722 24.9154 11.4722C25.5395 11.4722 26.0558 11.3101 26.4666 10.9835C26.8775 10.6569 27.1312 10.3281 27.2299 9.99469L27.3781 9.5197H30.5772C30.5615 9.63617 30.5368 9.79602 30.5031 9.99469C30.4694 10.1956 30.3348 10.5542 30.0968 11.0703C29.8588 11.5887 29.5602 12.0431 29.1988 12.4336C28.8373 12.8264 28.2806 13.1849 27.524 13.5092C26.7697 13.8357 25.9009 13.9979 24.9154 13.9979C22.9959 13.9979 21.503 13.4635 20.4366 12.3948C19.3702 11.326 18.8359 9.8668 18.8359 8.01479C18.8359 6.27924 19.377 4.8771 20.4613 3.80836L20.4568 3.81065Z" fill="white"/>
<path d="M32.9579 3.91092C34.0737 2.79194 35.607 2.23474 37.5602 2.23474C39.5133 2.23474 41.0511 2.79423 42.1736 3.91092C43.2983 5.02989 43.8596 6.43204 43.8596 8.11735C43.8596 9.80266 43.3028 11.2208 42.1871 12.3238C41.0556 13.4428 39.5133 14 37.5602 14C35.607 14 34.0692 13.4359 32.9467 12.3101C31.822 11.1842 31.2607 9.78668 31.2607 8.11735C31.2607 6.44802 31.8265 5.02989 32.9579 3.91092ZM34.4845 8.11735C34.4845 9.08561 34.7472 9.88715 35.2725 10.5197C35.7979 11.1546 36.5611 11.472 37.5624 11.472C38.5637 11.472 39.3045 11.15 39.8388 10.5083C40.3709 9.8666 40.638 9.06962 40.638 8.11735C40.638 7.11484 40.3754 6.30644 39.85 5.68986C39.3247 5.07328 38.5614 4.76271 37.5602 4.76271C36.5589 4.76271 35.7956 5.071 35.2703 5.68986C34.745 6.30644 34.4823 7.11712 34.4823 8.11735H34.4845Z" fill="white"/>
<path d="M48.1186 2.48366V4.06164C48.8729 2.86045 49.9887 2.25073 51.4659 2.23474H51.6387C53.4437 2.23474 54.7144 2.71887 55.453 3.68713C56.1916 4.65538 56.5597 6.03925 56.5597 7.84331V13.751H53.3853V7.84331C53.3853 5.82459 52.6467 4.8061 51.1695 4.79011H51.0955C50.1099 4.79011 49.3893 5.11896 48.929 5.77893C48.4688 6.43889 48.2398 7.37746 48.2398 8.59463V13.751H45.0654V2.48594H48.1164L48.1186 2.48366Z" fill="white"/>
<path d="M59.2683 3.81065C60.3347 2.76018 61.8186 2.23267 63.7224 2.23267C64.7236 2.23267 65.6059 2.36968 66.3692 2.646C67.1325 2.92232 67.6938 3.25572 68.0552 3.64851C68.4166 4.04129 68.7107 4.43636 68.942 4.83828C69.171 5.23791 69.3034 5.5736 69.3348 5.8385L69.4089 6.26326H66.1851C66.1694 6.229 66.1515 6.17648 66.1357 6.10112C66.12 6.02576 66.0504 5.90472 65.927 5.73802C65.8035 5.57131 65.6643 5.42059 65.5094 5.28814C65.3522 5.15569 65.1165 5.03466 64.7955 4.92505C64.4745 4.81772 64.1175 4.76291 63.7246 4.76291C62.7885 4.76291 62.0791 5.04609 61.5964 5.61471C61.1115 6.18333 60.8713 6.98259 60.8713 8.01707C60.8713 9.05155 61.1182 9.90791 61.6099 10.5336C62.1015 11.1593 62.8064 11.4722 63.7269 11.4722C64.351 11.4722 64.8673 11.3101 65.2782 10.9835C65.689 10.6569 65.9427 10.3281 66.0415 9.99469L66.1896 9.5197H69.3887C69.373 9.63617 69.3483 9.79602 69.3146 9.99469C69.281 10.1956 69.1463 10.5542 68.9083 11.0703C68.6703 11.5887 68.3718 12.0431 68.0103 12.4336C67.6489 12.8264 67.0921 13.1849 66.3356 13.5092C65.5812 13.8357 64.7124 13.9979 63.7269 13.9979C61.8074 13.9979 60.3145 13.4635 59.2481 12.3948C58.1818 11.326 57.6475 9.8668 57.6475 8.01479C57.6475 6.27924 58.1885 4.8771 59.2728 3.80836L59.2683 3.81065Z" fill="white"/>
<path d="M71.6473 3.86088C72.6979 2.77616 74.1414 2.23267 75.9778 2.23267C77.8142 2.23267 79.1904 2.7716 80.1984 3.84718C81.2064 4.92277 81.7115 6.3546 81.7115 8.14039C81.7115 8.44183 81.6958 8.75012 81.6621 9.06754H73.1716C73.2367 9.80287 73.5375 10.3852 74.0696 10.8191C74.6017 11.253 75.255 11.4699 76.0272 11.4699C76.3887 11.4699 76.7119 11.4288 76.9993 11.3443C77.2867 11.2621 77.5067 11.1662 77.6638 11.0566C77.8187 10.9492 77.9512 10.8351 78.0567 10.7186C78.1622 10.6021 78.2318 10.5017 78.2655 10.4172L78.3149 10.2916H81.4893C81.4736 10.392 81.4354 10.5245 81.3793 10.6912C81.3209 10.8579 81.166 11.1548 80.9123 11.5795C80.6586 12.0043 80.3511 12.3811 79.9896 12.7053C79.6282 13.0319 79.0961 13.3265 78.389 13.5937C77.684 13.8609 76.8871 13.9933 76.0025 13.9933C74.2312 13.9933 72.7989 13.4635 71.7079 12.4039C70.6168 11.3443 70.0713 9.92161 70.0713 8.13582C70.0713 6.35003 70.5966 4.95702 71.6473 3.85403V3.86088ZM78.6359 6.91409V6.83872C78.6359 6.20388 78.389 5.6992 77.8973 5.32468C77.4056 4.95017 76.7726 4.76063 76.0025 4.76063C75.2325 4.76063 74.5702 4.96159 74.0696 5.36122C73.569 5.76086 73.2704 6.27924 73.1716 6.91409H78.6359Z" fill="white"/>
<path d="M82.9189 2.4845H86.0193V4.16296C86.6748 3.04399 87.6671 2.4845 88.9961 2.4845H90.3005V5.18831H89.0702C87.7749 5.18831 86.9532 5.5103 86.6097 6.152C86.264 6.7937 86.0934 8.18442 86.0934 10.3196V13.7496H82.9189V2.4845Z" fill="white"/>
<path d="M92.0986 3.91092C93.2143 2.79194 94.7477 2.23474 96.7008 2.23474C98.6539 2.23474 100.192 2.79423 101.314 3.91092C102.439 5.02989 103 6.43204 103 8.11735C103 9.80266 102.441 11.2208 101.328 12.3238C100.196 13.4428 98.6517 14 96.7008 14C94.7499 14 93.2098 13.4359 92.0874 12.3101C90.9626 11.1842 90.4014 9.78668 90.4014 8.11735C90.4014 6.44802 90.9671 5.02989 92.0986 3.91092ZM93.6252 8.11735C93.6252 9.08561 93.8878 9.88715 94.4132 10.5197C94.9385 11.1546 95.7018 11.472 96.703 11.472C97.7043 11.472 98.4451 11.15 98.9794 10.5083C99.5137 9.8666 99.7787 9.06962 99.7787 8.11735C99.7787 7.11484 99.516 6.30644 98.9907 5.68986C98.4654 5.07328 97.7021 4.76271 96.7008 4.76271C95.6995 4.76271 94.9362 5.071 94.4109 5.68986C93.8856 6.30644 93.6229 7.11712 93.6229 8.11735H93.6252Z" fill="white"/>
<path d="M11.2061 2.06989H2.78738L3.79313 0.182423C3.8515 0.0681044 3.96599 0 4.08498 0H11.7C11.8145 0 11.9177 0.0656701 11.9761 0.172691L13.139 2.3496C13.1772 2.42257 13.1772 2.515 13.139 2.58797L11.7718 5.15161L13.02 7.49636L11.9267 9.55165L9.65478 5.29026C9.60539 5.1954 9.60539 5.08108 9.65478 4.98622L11.2083 2.06746L11.2061 2.06989ZM2.70656 12.7817L3.79537 14.8273C3.8515 14.9343 3.95926 15 4.07375 15H11.6865C11.8077 15 11.92 14.9319 11.9806 14.8176L12.9863 12.9301H4.70908L6.19077 10.1524C6.24016 10.0576 6.24016 9.94325 6.19077 9.84839L3.84476 5.45079L2.7537 7.50122L4.07599 9.97973L2.7088 12.5458C2.67063 12.6188 2.67063 12.7112 2.7088 12.7817H2.70656Z" fill="white"/>
<path d="M5.74951 12.3192H13.0547C13.2163 12.3192 13.3645 12.2243 13.4476 12.0711L15.6768 7.8875C15.8048 7.64914 15.8048 7.35239 15.6768 7.1116L13.5261 3.07397L12.4239 5.14387L13.6765 7.50077L12.8931 8.97474L12.2555 10.169L12.2151 10.2444H6.85629L5.754 12.3167L5.74951 12.3192Z" fill="white"/>
<path d="M0.100461 7.88811L2.31177 12.0376L3.41406 9.96773L2.09849 7.50137L3.51733 4.84043L3.56223 4.7553H9.06468L10.167 2.68298H2.71811C2.55647 2.68298 2.40606 2.77784 2.32524 2.93108L0.0959731 7.11464C-0.031991 7.353 -0.031991 7.64974 0.0959731 7.89054L0.100461 7.88811Z" fill="white"/>
</g>
</mask>
<g mask="url(#mask0_42706_69978)">
<rect x="-4" y="-1" width="113" height="16" fill="url(#paint0_linear_42706_69978)"/>
</g>
<defs>
<linearGradient id="paint0_linear_42706_69978" x1="95.779" y1="14.9997" x2="4.927" y2="14.9997" gradientUnits="userSpaceOnUse">
<stop offset="0.0684127" stop-color="white" stop-opacity="0.5"/>
<stop offset="0.372907" stop-color="white" stop-opacity="0.9"/>
<stop offset="0.575904" stop-color="white" stop-opacity="0.9"/>
<stop offset="0.876898" stop-color="white" stop-opacity="0.5"/>
</linearGradient>
</defs>
</svg>
